<svg xmlns="http://www.w3.org/2000/svg" viewBox="0 0 30.47 30.47"><defs><style>.cls-1{fill:#fff;}</style></defs><g id="Layer_2" data-name="Layer 2"><g id="Layer_1-2" data-name="Layer 1"><path class="cls-1" d="M19.91,22.93a2.16,2.16,0,0,1-2-1.21,3.81,3.81,0,0,1-.07-2.42l4-9.49L20.76,9l-8.4,6.62a2.86,2.86,0,0,1-1.59.67h0a2,2,0,0,1-2-1.59l-.06-.34A.35.35,0,0,1,9,14a.36.36,0,0,1,.41.28l.06.34a1.34,1.34,0,0,0,1.31,1,2.18,2.18,0,0,0,1.19-.53l8.6-6.77a.33.33,0,0,1,.41,0l1.55,1.1a.34.34,0,0,1,.12.41l-4.13,9.72a3.1,3.1,0,0,0,.06,1.92,1.49,1.49,0,0,0,1.49.77l.37,0a.33.33,0,0,1,.37.31.35.35,0,0,1-.31.38l-.37,0h-.19"/><path class="cls-1" d="M19.59,23.45h-9a2,2,0,0,1-2-2.2l.5-2.76c0-.25-.54-.56-.92-.56H.5c-.19,0-.13-.15-.13-.35s-.06-.34.13-.34H8.21c.64,0,1.61.51,1.61,1.27v.06l-.5,2.78a1.26,1.26,0,0,0,.32,1,1.28,1.28,0,0,0,1,.42h9a1.27,1.27,0,0,0,1.27-1.42l-.5-2.76v-.06c0-.76,1-1.27,1.62-1.27h8c.19,0,.07.18.07.37s.12.32-.07.32H22c-.39,0-.9.31-.93.56l.49,2.73a2,2,0,0,1-1.95,2.23M9.48,18.51Z"/><path class="cls-1" d="M15.24,30.47A15.24,15.24,0,1,1,30.47,15.24,15.25,15.25,0,0,1,15.24,30.47m0-29.78A14.55,14.55,0,1,0,29.78,15.24,14.57,14.57,0,0,0,15.24.69"/></g></g></svg>