<svg xmlns="http://www.w3.org/2000/svg" viewBox="0 0 30.47 30.47"><defs><style>.cls-1{fill:#fff;}</style></defs><g id="Layer_2" data-name="Layer 2"><g id="Layer_1-2" data-name="Layer 1"><path class="cls-1" d="M15.24,30.47A15.24,15.24,0,1,1,30.47,15.24,15.25,15.25,0,0,1,15.24,30.47m0-29.78A14.55,14.55,0,1,0,29.78,15.24,14.56,14.56,0,0,0,15.24.69"/><path class="cls-1" d="M15.24,24.09a8.79,8.79,0,0,1-5.52-1.8,9,9,0,0,1-3.2-4.62H2.71v-.86H6.36a8.48,8.48,0,0,1-.1-1.55c0-.55,0-1.08.1-1.6H2.71V12.8H6.58A8.66,8.66,0,0,1,9.72,8.18a8.79,8.79,0,0,1,5.52-1.8,8.85,8.85,0,0,1,3.09.54,10.22,10.22,0,0,1,2.72,1.51L20.41,9A8,8,0,0,0,18,7.7a8.35,8.35,0,0,0-2.75-.46A7.84,7.84,0,0,0,10.3,8.83a8.11,8.11,0,0,0-2.84,4H15.1v.86H7.24a8.45,8.45,0,0,0-.15,1.54,6.83,6.83,0,0,0,.15,1.61H15.1v.86H7.44a8.17,8.17,0,0,0,2.86,4,7.84,7.84,0,0,0,4.94,1.59A8.89,8.89,0,0,0,18,22.79a8,8,0,0,0,2.45-1.33l.61.58a9.35,9.35,0,0,1-2.66,1.5A9.24,9.24,0,0,1,15.24,24.09Z"/></g></g></svg>