<svg xmlns="http://www.w3.org/2000/svg" viewBox="0 0 30.47 30.47"><defs><style>.cls-1{fill:#fff;}.cls-2{fill:#231f20;}</style></defs><g id="Layer_2" data-name="Layer 2"><g id="Layer_1-2" data-name="Layer 1"><path class="cls-1" d="M15.24,30.47A15.24,15.24,0,1,1,30.47,15.24,15.25,15.25,0,0,1,15.24,30.47m0-29.78A14.55,14.55,0,1,0,29.78,15.24,14.56,14.56,0,0,0,15.24.69"/><path class="cls-2" d="M3.63,15.24A11.61,11.61,0,1,0,15.24,3.62,11.61,11.61,0,0,0,3.63,15.24"/><path class="cls-1" d="M15.24,27.1A11.87,11.87,0,1,1,27.1,15.24,11.87,11.87,0,0,1,15.24,27.1m0-23.23A11.37,11.37,0,1,0,26.6,15.24,11.37,11.37,0,0,0,15.24,3.87"/></g></g></svg>