<svg xmlns="http://www.w3.org/2000/svg" viewBox="0 0 30.47 30.47"><defs><style>.cls-1{fill:#fff;}</style></defs><g id="Layer_2" data-name="Layer 2"><g id="Layer_1-2" data-name="Layer 1"><path class="cls-1" d="M15.24,30.47A15.24,15.24,0,1,1,30.47,15.24,15.25,15.25,0,0,1,15.24,30.47m0-29.78A14.55,14.55,0,1,0,29.78,15.24,14.56,14.56,0,0,0,15.24.69"/><path class="cls-1" d="M11.81,12.67c0-.94-.33-1.19-.85-1.19s-.84.28-.84,1v.66H8.57v-.56C8.57,10.94,9.4,10,11,10s2.43.95,2.43,2.62v.27A2,2,0,0,1,12.3,15a2.11,2.11,0,0,1,1.14,2.18V18c0,1.66-.83,2.61-2.43,2.61S8.57,19.68,8.57,18v-.86h1.55v1c0,.74.32,1,.84,1s.85-.26.85-1.18v-.81c0-1-.33-1.33-1.07-1.33h-.55V14.35h.64c.61,0,1-.27,1-1.1Z"/><path class="cls-1" d="M13.76,12.61A2.31,2.31,0,0,1,16.24,10a2.31,2.31,0,0,1,2.48,2.62V18a2.3,2.3,0,0,1-2.48,2.61A2.31,2.31,0,0,1,13.76,18Zm1.63,5.51c0,.74.33,1,.85,1s.85-.29.85-1V12.51c0-.75-.33-1-.85-1s-.85.28-.85,1Z"/><polygon class="cls-1" points="20.2 19.28 20.97 16.19 21.9 16.19 20.91 20.47 19.4 20.47 18.4 16.19 19.43 16.19 20.2 19.28"/></g></g></svg>